<mxfile host="app.diagrams.net" agent="Mozilla/5.0 (Windows NT 10.0; Win64; x64) AppleWebKit/537.36 (KHTML, like Gecko) Chrome/137.0.0.0 Safari/537.36" version="27.1.6">
  <diagram name="PÃ¡gina-1" id="e3umRrUHKhaPqrH1uW7i">
    <mxGraphModel grid="1" page="1" gridSize="10" guides="1" tooltips="1" connect="1" arrows="1" fold="1" pageScale="1" pageWidth="827" pageHeight="1169" math="0" shadow="0">
      <root>
        <mxCell id="0" />
        <mxCell id="1" parent="0" />
        <mxCell id="3wIM1wTRs99utwIzGLNN-1" value="Administrador" style="html=1;whiteSpace=wrap;" vertex="1" parent="1">
          <mxGeometry x="70" width="110" height="50" as="geometry" />
        </mxCell>
        <mxCell id="3wIM1wTRs99utwIzGLNN-2" value="Sistema&lt;span style=&quot;color: rgba(0, 0, 0, 0); font-family: monospace; font-size: 0px; text-align: start; text-wrap-mode: nowrap;&quot;&gt;%3CmxGraphModel%3E%3Croot%3E%3CmxCell%20id%3D%220%22%2F%3E%3CmxCell%20id%3D%221%22%20parent%3D%220%22%2F%3E%3CmxCell%20id%3D%222%22%20value%3D%22Usuario%22%20style%3D%22html%3D1%3BwhiteSpace%3Dwrap%3B%22%20vertex%3D%221%22%20parent%3D%221%22%3E%3CmxGeometry%20x%3D%2270%22%20y%3D%2240%22%20width%3D%22110%22%20height%3D%2250%22%20as%3D%22geometry%22%2F%3E%3C%2FmxCell%3E%3C%2Froot%3E%3C%2FmxGraphModel%3E&lt;/span&gt;" style="html=1;whiteSpace=wrap;" vertex="1" parent="1">
          <mxGeometry x="261.25" width="110" height="50" as="geometry" />
        </mxCell>
        <mxCell id="3wIM1wTRs99utwIzGLNN-3" value="Base de datos" style="html=1;whiteSpace=wrap;" vertex="1" parent="1">
          <mxGeometry x="470" width="110" height="50" as="geometry" />
        </mxCell>
        <mxCell id="3wIM1wTRs99utwIzGLNN-4" style="edgeStyle=orthogonalEdgeStyle;rounded=0;orthogonalLoop=1;jettySize=auto;html=1;exitX=0.5;exitY=0;exitDx=0;exitDy=0;dashed=1;endArrow=none;startFill=0;" edge="1" parent="1" source="3wIM1wTRs99utwIzGLNN-5" target="3wIM1wTRs99utwIzGLNN-1">
          <mxGeometry relative="1" as="geometry" />
        </mxCell>
        <mxCell id="3wIM1wTRs99utwIzGLNN-5" value="Administrador" style="html=1;whiteSpace=wrap;" vertex="1" parent="1">
          <mxGeometry x="70" y="465" width="110" height="50" as="geometry" />
        </mxCell>
        <mxCell id="3wIM1wTRs99utwIzGLNN-6" style="edgeStyle=orthogonalEdgeStyle;rounded=0;orthogonalLoop=1;jettySize=auto;html=1;exitX=0.5;exitY=0;exitDx=0;exitDy=0;dashed=1;endArrow=none;startFill=0;" edge="1" parent="1" source="3wIM1wTRs99utwIzGLNN-7" target="3wIM1wTRs99utwIzGLNN-2">
          <mxGeometry relative="1" as="geometry" />
        </mxCell>
        <mxCell id="3wIM1wTRs99utwIzGLNN-7" value="Sistema&lt;span style=&quot;color: rgba(0, 0, 0, 0); font-family: monospace; font-size: 0px; text-align: start; text-wrap-mode: nowrap;&quot;&gt;%3CmxGraphModel%3E%3Croot%3E%3CmxCell%20id%3D%220%22%2F%3E%3CmxCell%20id%3D%221%22%20parent%3D%220%22%2F%3E%3CmxCell%20id%3D%222%22%20value%3D%22Usuario%22%20style%3D%22html%3D1%3BwhiteSpace%3Dwrap%3B%22%20vertex%3D%221%22%20parent%3D%221%22%3E%3CmxGeometry%20x%3D%2270%22%20y%3D%2240%22%20width%3D%22110%22%20height%3D%2250%22%20as%3D%22geometry%22%2F%3E%3C%2FmxCell%3E%3C%2Froot%3E%3C%2FmxGraphModel%3E&lt;/span&gt;" style="html=1;whiteSpace=wrap;" vertex="1" parent="1">
          <mxGeometry x="261.25" y="465" width="110" height="50" as="geometry" />
        </mxCell>
        <mxCell id="3wIM1wTRs99utwIzGLNN-8" value="Base de datos" style="html=1;whiteSpace=wrap;" vertex="1" parent="1">
          <mxGeometry x="470" y="465" width="110" height="50" as="geometry" />
        </mxCell>
        <mxCell id="3wIM1wTRs99utwIzGLNN-9" value="" style="endArrow=none;dashed=1;html=1;rounded=0;" edge="1" parent="1" source="3wIM1wTRs99utwIzGLNN-26" target="3wIM1wTRs99utwIzGLNN-1">
          <mxGeometry width="50" height="50" relative="1" as="geometry">
            <mxPoint x="121" y="165" as="sourcePoint" />
            <mxPoint x="120" y="50" as="targetPoint" />
          </mxGeometry>
        </mxCell>
        <mxCell id="3wIM1wTRs99utwIzGLNN-10" value="" style="endArrow=none;dashed=1;html=1;rounded=0;entryX=0.5;entryY=1;entryDx=0;entryDy=0;" edge="1" parent="1" target="3wIM1wTRs99utwIzGLNN-3">
          <mxGeometry width="50" height="50" relative="1" as="geometry">
            <mxPoint x="525" y="170" as="sourcePoint" />
            <mxPoint x="340" y="70" as="targetPoint" />
          </mxGeometry>
        </mxCell>
        <mxCell id="3wIM1wTRs99utwIzGLNN-11" value="" style="endArrow=classic;html=1;rounded=0;entryX=0;entryY=0;entryDx=0;entryDy=5;entryPerimeter=0;" edge="1" parent="1" target="3wIM1wTRs99utwIzGLNN-20">
          <mxGeometry width="50" height="50" relative="1" as="geometry">
            <mxPoint x="130" y="95" as="sourcePoint" />
            <mxPoint x="230" y="70" as="targetPoint" />
          </mxGeometry>
        </mxCell>
        <mxCell id="3wIM1wTRs99utwIzGLNN-12" value="1. Ingresar apartado &quot;Recursos&quot;" style="text;html=1;align=center;verticalAlign=middle;whiteSpace=wrap;rounded=0;" vertex="1" parent="1">
          <mxGeometry x="140" y="70" width="170" height="20" as="geometry" />
        </mxCell>
        <mxCell id="3wIM1wTRs99utwIzGLNN-13" value="" style="endArrow=none;dashed=1;html=1;rounded=0;entryX=0.5;entryY=1;entryDx=0;entryDy=0;" edge="1" parent="1" source="3wIM1wTRs99utwIzGLNN-22">
          <mxGeometry width="50" height="50" relative="1" as="geometry">
            <mxPoint x="525.63" y="205" as="sourcePoint" />
            <mxPoint x="525.63" y="115" as="targetPoint" />
          </mxGeometry>
        </mxCell>
        <mxCell id="3wIM1wTRs99utwIzGLNN-14" value="2. Solicita lista de recursos" style="text;html=1;align=center;verticalAlign=middle;whiteSpace=wrap;rounded=0;" vertex="1" parent="1">
          <mxGeometry x="356.38" y="125" width="136" height="20" as="geometry" />
        </mxCell>
        <mxCell id="3wIM1wTRs99utwIzGLNN-15" value="" style="endArrow=classic;html=1;rounded=0;fontSize=12;startSize=8;endSize=8;curved=1;entryX=0;entryY=0;entryDx=0;entryDy=5;entryPerimeter=0;" edge="1" parent="1">
          <mxGeometry width="50" height="50" relative="1" as="geometry">
            <mxPoint x="329.38" y="145" as="sourcePoint" />
            <mxPoint x="519.38" y="145" as="targetPoint" />
          </mxGeometry>
        </mxCell>
        <mxCell id="3wIM1wTRs99utwIzGLNN-16" value="3. Devolver listado de recursos" style="text;html=1;align=center;verticalAlign=middle;whiteSpace=wrap;rounded=0;" vertex="1" parent="1">
          <mxGeometry x="371.25" y="180" width="120" height="20" as="geometry" />
        </mxCell>
        <mxCell id="3wIM1wTRs99utwIzGLNN-17" value="" style="endArrow=classic;html=1;rounded=0;fontSize=12;startSize=8;endSize=8;curved=0;" edge="1" parent="1" target="3wIM1wTRs99utwIzGLNN-23">
          <mxGeometry width="50" height="50" relative="1" as="geometry">
            <mxPoint x="520.63" y="210" as="sourcePoint" />
            <mxPoint x="324.38" y="350" as="targetPoint" />
            <Array as="points" />
          </mxGeometry>
        </mxCell>
        <mxCell id="3wIM1wTRs99utwIzGLNN-18" value="" style="endArrow=none;dashed=1;html=1;rounded=0;exitX=0.5;exitY=0;exitDx=0;exitDy=0;" edge="1" parent="1" source="3wIM1wTRs99utwIzGLNN-20" target="3wIM1wTRs99utwIzGLNN-2">
          <mxGeometry width="50" height="50" relative="1" as="geometry">
            <mxPoint x="320" y="545" as="sourcePoint" />
            <mxPoint x="320" y="25" as="targetPoint" />
          </mxGeometry>
        </mxCell>
        <mxCell id="3wIM1wTRs99utwIzGLNN-19" value="" style="endArrow=none;dashed=1;html=1;rounded=0;entryX=0.5;entryY=1;entryDx=0;entryDy=0;exitX=0.5;exitY=0;exitDx=0;exitDy=0;" edge="1" parent="1" source="3wIM1wTRs99utwIzGLNN-8">
          <mxGeometry width="50" height="50" relative="1" as="geometry">
            <mxPoint x="525" y="570" as="sourcePoint" />
            <mxPoint x="525" y="250" as="targetPoint" />
          </mxGeometry>
        </mxCell>
        <mxCell id="3wIM1wTRs99utwIzGLNN-20" value="" style="html=1;points=[[0,0,0,0,5],[0,1,0,0,-5],[1,0,0,0,5],[1,1,0,0,-5]];perimeter=orthogonalPerimeter;outlineConnect=0;targetShapes=umlLifeline;portConstraint=eastwest;newEdgeStyle={&quot;curved&quot;:0,&quot;rounded&quot;:0};" vertex="1" parent="1">
          <mxGeometry x="311.25" y="90" width="10" height="40" as="geometry" />
        </mxCell>
        <mxCell id="3wIM1wTRs99utwIzGLNN-21" value="" style="endArrow=none;dashed=1;html=1;rounded=0;entryX=0.5;entryY=1;entryDx=0;entryDy=0;" edge="1" parent="1" target="3wIM1wTRs99utwIzGLNN-22">
          <mxGeometry width="50" height="50" relative="1" as="geometry">
            <mxPoint x="525" y="250" as="sourcePoint" />
            <mxPoint x="525" y="160" as="targetPoint" />
          </mxGeometry>
        </mxCell>
        <mxCell id="3wIM1wTRs99utwIzGLNN-22" value="" style="html=1;points=[[0,0,0,0,5],[0,1,0,0,-5],[1,0,0,0,5],[1,1,0,0,-5]];perimeter=orthogonalPerimeter;outlineConnect=0;targetShapes=umlLifeline;portConstraint=eastwest;newEdgeStyle={&quot;curved&quot;:0,&quot;rounded&quot;:0};" vertex="1" parent="1">
          <mxGeometry x="520.63" y="135" width="10" height="40" as="geometry" />
        </mxCell>
        <mxCell id="3wIM1wTRs99utwIzGLNN-23" value="" style="html=1;points=[[0,0,0,0,5],[0,1,0,0,-5],[1,0,0,0,5],[1,1,0,0,-5]];perimeter=orthogonalPerimeter;outlineConnect=0;targetShapes=umlLifeline;portConstraint=eastwest;newEdgeStyle={&quot;curved&quot;:0,&quot;rounded&quot;:0};" vertex="1" parent="1">
          <mxGeometry x="311.88" y="190" width="10" height="40" as="geometry" />
        </mxCell>
        <mxCell id="3wIM1wTRs99utwIzGLNN-24" value="" style="endArrow=classic;html=1;rounded=0;fontSize=12;startSize=8;endSize=8;curved=0;" edge="1" parent="1" target="3wIM1wTRs99utwIzGLNN-26">
          <mxGeometry width="50" height="50" relative="1" as="geometry">
            <mxPoint x="310" y="280" as="sourcePoint" />
            <mxPoint x="122.25" y="280" as="targetPoint" />
            <Array as="points" />
          </mxGeometry>
        </mxCell>
        <mxCell id="3wIM1wTRs99utwIzGLNN-25" value="4. Mostrar listado de recursos" style="text;html=1;align=center;verticalAlign=middle;whiteSpace=wrap;rounded=0;" vertex="1" parent="1">
          <mxGeometry x="150.94" y="250" width="145" height="20" as="geometry" />
        </mxCell>
        <mxCell id="3wIM1wTRs99utwIzGLNN-26" value="" style="html=1;points=[[0,0,0,0,5],[0,1,0,0,-5],[1,0,0,0,5],[1,1,0,0,-5]];perimeter=orthogonalPerimeter;outlineConnect=0;targetShapes=umlLifeline;portConstraint=eastwest;newEdgeStyle={&quot;curved&quot;:0,&quot;rounded&quot;:0};" vertex="1" parent="1">
          <mxGeometry x="120" y="270" width="10" height="165" as="geometry" />
        </mxCell>
        <mxCell id="3wIM1wTRs99utwIzGLNN-27" value="" style="endArrow=classic;html=1;rounded=0;" edge="1" parent="1">
          <mxGeometry width="50" height="50" relative="1" as="geometry">
            <mxPoint x="311" y="335" as="sourcePoint" />
            <mxPoint x="129.55999999999995" y="335" as="targetPoint" />
          </mxGeometry>
        </mxCell>
        <mxCell id="3wIM1wTRs99utwIzGLNN-28" value="4.1. Registrar recurso" style="text;html=1;align=center;verticalAlign=middle;whiteSpace=wrap;rounded=0;" vertex="1" parent="1">
          <mxGeometry x="138.44000000000005" y="315" width="170" height="20" as="geometry" />
        </mxCell>
        <mxCell id="3wIM1wTRs99utwIzGLNN-29" value="" style="endArrow=classic;html=1;rounded=0;" edge="1" parent="1">
          <mxGeometry width="50" height="50" relative="1" as="geometry">
            <mxPoint x="311" y="375" as="sourcePoint" />
            <mxPoint x="129.55999999999995" y="375" as="targetPoint" />
          </mxGeometry>
        </mxCell>
        <mxCell id="3wIM1wTRs99utwIzGLNN-30" value="4.2. Eliminar recurso" style="text;html=1;align=center;verticalAlign=middle;whiteSpace=wrap;rounded=0;" vertex="1" parent="1">
          <mxGeometry x="138.44000000000005" y="355" width="170" height="20" as="geometry" />
        </mxCell>
        <mxCell id="3wIM1wTRs99utwIzGLNN-31" value="" style="endArrow=classic;html=1;rounded=0;" edge="1" parent="1">
          <mxGeometry width="50" height="50" relative="1" as="geometry">
            <mxPoint x="311" y="415" as="sourcePoint" />
            <mxPoint x="129.55999999999995" y="415" as="targetPoint" />
          </mxGeometry>
        </mxCell>
        <mxCell id="3wIM1wTRs99utwIzGLNN-32" value="4.3. Editar recurso" style="text;html=1;align=center;verticalAlign=middle;whiteSpace=wrap;rounded=0;" vertex="1" parent="1">
          <mxGeometry x="140.94000000000005" y="395" width="170" height="20" as="geometry" />
        </mxCell>
      </root>
    </mxGraphModel>
  </diagram>
</mxfile>
